<svg id="Layer_5" 
    enable-background="new 0 0 64 64" 
    style="fill:#14274e;" 
    height="512" 
    viewBox="0 0 64 64"
    width="512" 
    xmlns="http://www.w3.org/2000/svg">
    <g>
        <circle cx="25" cy="16" r="1"/>
        <circle cx="19" cy="16" r="1"/>
        
        <path d="m22 23c2.206 0 4-1.794 4-4h-2c0 1.103-.897 2-2 2s-2-.897-2-2h-2c0 2.206 1.794 4 4 4z"/>
        <path d="m59.708 31.533-9.767-6.761c.039-.266.059-.522.059-.772 0-3.309-2.691-6-6-6-1.25 0-2.455.391-3.486 1.131-.265.189-.42.496-.417.821s.163.628.431.813l2.041 1.413c.453.314.567.938.254 1.391-.304.438-.952.558-1.392.254l-1.801-1.247c-.288-.199-.659-.234-.979-.09-.319.143-.541.443-.583.79l-.018.132c-.027.195-.05.39-.05.592 0 3.309 2.691 6 6 6 .777 0 1.54-.157 2.274-.468l.493.341-4.014 5.734-6.739-4.718c-1.725-1.207-3.738-2.003-5.823-2.302l-3.384-.482-.579-2.313c1.059-.682 1.934-1.629 2.573-2.793h1.199c2.206 0 4-1.794 4-4v-6h1c1.654 0 3-1.346 3-3s-1.346-3-3-3h-1.832c-1.579-3.615-5.178-5.999-9.168-5.999h-4c-5.514 0-10 4.486-10 10v1 1 6c0 2.206 1.794 4 4 4h1.198c.638 1.163 1.513 2.111 2.573 2.793l-.579 2.313-4.209.601c-1.537.221-3.032.791-4.324 1.652-2.917 1.944-4.659 5.199-4.659 8.705v8.936c0 2.757 2.243 5 5 5h1v10h24v-21.461l6.539 2.905c.826.369 1.706.556 2.614.556 2.11 0 4.088-1.036 5.289-2.771l5.24-7.568 2.61 1.807c.506.347 1.096.532 1.707.532.983 0 1.906-.482 2.468-1.292.941-1.359.601-3.232-.759-4.175zm-39.23.575-2.478 2.478v-4.336zm1.522 1.306 2.586 2.586h-5.172zm4-3.164v4.336l-2.478-2.478zm4-9.25h-.395c.254-.924.395-1.927.395-3v-1c1.103 0 2 .897 2 2s-.897 2-2 2zm2-5.444c-.591-.344-1.268-.556-2-.556v-2h2zm3-6.556c.552 0 1 .448 1 1s-.448 1-1 1h-12.829c.413-1.164 1.525-2 2.829-2zm-15-6h4c2.889 0 5.52 1.561 6.931 4h-5.931c-2.415 0-4.435 1.721-4.899 4h-8.101c0-4.411 3.589-8 8-8zm-6 10v2c-.732 0-1.409.212-2 .556v-2.556zm0 8c-1.103 0-2-.897-2-2s.897-2 2-2v1c0 1.073.141 2.076.395 3zm2-3v-5h12v5c0 4.252-2.355 7-6 7s-6-2.748-6-7zm6 9c.844 0 1.64-.123 2.383-.349l.486 1.948-2.869 2.151-2.869-2.151.486-1.948c.743.226 1.539.349 2.383.349zm-8.733 3.687 2.733-.391v7.704h12v-7.704l1.908.273c.713.102 1.41.29 2.092.524v23.907h-2v-15h-16v5h-2v-14.018c.416-.127.837-.234 1.267-.295zm2.733 26.313v-4h4c2.206 0 4-1.794 4-4s-1.794-4-4-4h-4v-3h12v15zm4-10c1.103 0 2 .897 2 2s-.897 2-2 2h-2v-4zm-14 1v-8.936c0-2.837 1.409-5.469 3.769-7.042.074-.05.155-.089.231-.136v13.114 1 1h6v4h-7c-1.654 0-3-1.346-3-3zm8 5v2h-2v-2zm-2 4h2v2h7v2h-9zm11 4v-2h7v-2h2v4zm23.798-19.91c-.828 1.196-2.191 1.91-3.645 1.91-.626 0-1.231-.129-1.801-.383l-7.352-3.267v-7.356c.295.169.59.339.868.534l8.378 5.864 2.861-4.087 3.604 2.577zm4.051-5.852-3.596-2.571 1.158-1.655 3.626 2.51zm7.974-.67c-.304.438-.952.558-1.392.254l-10.496-7.266c-.171-.118-.37-.178-.569-.178-.164 0-.328.04-.478.121-.61.333-1.245.501-1.888.501-1.692 0-3.143-1.057-3.727-2.545l.019.013c1.317.909 3.264.555 4.174-.759.941-1.359.602-3.232-.759-4.175l-.617-.427c.297-.071.601-.107.91-.107 2.206 0 4 1.794 4 4 0 .296-.044.605-.138.975-.103.405.058.831.4 1.068l10.307 7.135c.219.151.366.38.414.644s-.009.529-.16.746z"/>
    </g>
</svg>