<?xml version="1.0" encoding="iso-8859-1"?>
<!-- Generator: Adobe Illustrator 19.0.0, SVG Export Plug-In . SVG Version: 6.00 Build 0)  -->
<svg version="1.1" id="Layer_1" xmlns="http://www.w3.org/2000/svg" xmlns:xlink="http://www.w3.org/1999/xlink" x="0px" y="0px"
	 viewBox="0 0 344.445 344.445" style="enable-background:new 0 0 344.445 344.445; fill: #14274e;" xml:space="preserve">
<g>
	<g>
		<g>
			<path d="M254.556,221.867l-43.444-9.656v-13.728c16.789-12.117,27.778-31.8,27.778-54.039v-29.617
				c1.15-1.139,2.233-2.356,3.161-3.717H250h5.556h11.111V100h-11.111V88.889c0-39.75-28.706-74.078-67.394-81.617
				C186.594,3.039,182.549,0,177.778,0h-11.111c-4.772,0-8.817,3.039-10.383,7.272C117.595,14.811,88.89,49.139,88.89,88.889V100
				H77.778v11.111h11.111h5.556h7.95c0.933,1.361,2.011,2.583,3.161,3.722v29.611c0,22.239,10.989,41.922,27.778,54.039v13.728
				l-43.444,9.656c-33.3,7.4-56.556,36.389-56.556,70.5v52.078h277.778v-52.078C311.111,258.256,287.856,229.267,254.556,221.867z
				 M88.888,333.334H44.444v-40.967c0-27.678,18.117-51.322,44.444-58.744V333.334z M213.799,224.189l-20.75,27.672l-15.15-15.15
				l28.378-14.189L213.799,224.189z M172.221,211.111c9.922,0,19.311-2.239,27.778-6.139v8.261l-27.778,13.889l-27.778-13.889
				v-8.261C152.911,208.872,162.299,211.111,172.221,211.111z M156.15,197.611c0.9-1.856,2.761-3.167,4.961-3.167h22.222
				c2.2,0,4.061,1.312,4.961,3.167c-5.089,1.539-10.483,2.389-16.072,2.389C166.633,200,161.239,199.15,156.15,197.611z
				 M110.522,103.072L108.989,100H100V88.889c0-33.472,23.472-62.572,55.556-70.183v25.739h11.111V11.111h11.111v33.333h11.111
				V18.706c32.083,7.611,55.556,36.711,55.556,70.183V100h-8.989l-1.533,3.072c-2.483,4.956-7.467,8.039-13.011,8.039h-97.378
				C117.983,111.111,113,108.033,110.522,103.072z M116.666,144.444v-23.178c2.2,0.611,4.5,0.956,6.867,0.956h97.372
				c2.367,0,4.667-0.35,6.867-0.956v23.178c0,21.1-11.822,39.483-29.189,48.883c-2.578-5.872-8.433-9.994-15.25-9.994h-22.222
				c-6.817,0-12.672,4.122-15.25,9.994C128.489,183.928,116.666,165.544,116.666,144.444z M138.167,222.517l28.378,14.189
				l-15.15,15.15l-20.75-27.672L138.167,222.517z M166.667,333.333H100v-11.111h66.667V333.333z M166.667,311.111H100V231
				l18.739-4.161l47.928,63.9V311.111z M158.129,260.834l14.094-14.089l14.094,14.094l-14.094,18.789L158.129,260.834z
				 M177.777,290.739l47.928-63.906L244.444,231v80.111h-66.667V290.739z M244.445,333.333h-66.667v-11.111h66.667V333.333z
				 M300,333.333h-44.444v-99.711C281.883,241.044,300,264.694,300,292.367V333.333z"/>
			<rect x="116.666" y="88.889" width="111.111" height="11.111"/>
		</g>
	</g>
</g>
<g>
</g>
<g>
</g>
<g>
</g>
<g>
</g>
<g>
</g>
<g>
</g>
<g>
</g>
<g>
</g>
<g>
</g>
<g>
</g>
<g>
</g>
<g>
</g>
<g>
</g>
<g>
</g>
<g>
</g>
</svg>
