<?xml version="1.0" encoding="iso-8859-1"?>
<!-- Generator: Adobe Illustrator 19.0.0, SVG Export Plug-In . SVG Version: 6.00 Build 0)  -->
<svg version="1.1" id="Layer_1" xmlns="http://www.w3.org/2000/svg" xmlns:xlink="http://www.w3.org/1999/xlink" x="0px" y="0px"
	 viewBox="0 0 496 496" style="enable-background:new 0 0 496 496; fill: #14274e;" xml:space="preserve">
<g>
	<g>
		<g>
			<path  d="M472,32h-72V0H100.688L0,100.688V496h400V192h72c13.232,0,24-10.768,24-24V56C496,42.768,485.232,32,472,32z M96,27.312
				V96H27.312L96,27.312z M384,480H16V112h96V16h272v16H184c-13.232,0-24,10.768-24,24v112c0,13.232,10.768,24,24,24h200V480z
				 M480,168c0,4.408-3.592,8-8,8H184c-4.408,0-8-3.592-8-8V56c0-4.408,3.592-8,8-8h288c4.408,0,8,3.592,8,8V168z"/>
			<rect x="32" y="128" width="16" height="16"/>
			<rect x="64" y="128" width="16" height="16"/>
			<rect x="32" y="160" width="16" height="16"/>
			<path d="M244,64h-52v96h52c15.44,0,28-12.56,28-28c0-7.832-3.224-14.912-8.424-20c5.2-5.088,8.424-12.168,8.424-20
				C272,76.56,259.44,64,244,64z M244,144h-36v-24h36c6.616,0,12,5.384,12,12C256,138.616,250.616,144,244,144z M244,104h-36V80h36
				c6.616,0,12,5.384,12,12C256,98.616,250.616,104,244,104z"/>
			<path d="M328,64c-22.056,0-40,17.944-40,40v56h16v-24h48v24h16v-56C368,81.944,350.056,64,328,64z M352,120h-48v-16
				c0-13.232,10.768-24,24-24s24,10.768,24,24V120z"/>
			<polygon points="384,80 416,80 416,160 432,160 432,80 464,80 464,64 384,64 			"/>
			<path d="M128,208v20.752c-7.336,2.184-14.432,5.136-21.192,8.8L92.12,222.864L46.864,268.12l14.688,14.688
				c-3.664,6.76-6.608,13.848-8.8,21.192H32v64h20.752c2.184,7.344,5.136,14.432,8.8,21.192L46.864,403.88l45.256,45.256
				l14.688-14.688c6.76,3.664,13.856,6.608,21.192,8.8V464h64v-20.752c7.344-2.184,14.432-5.136,21.192-8.8l14.688,14.688
				l45.256-45.256l-14.688-14.688c2.304-4.256,4.216-8.688,5.944-13.192H344c13.232,0,24-10.768,24-24v-32c0-13.232-10.768-24-24-24
				h-79.6c-1.728-4.504-3.648-8.944-5.944-13.192l14.688-14.688l-45.256-45.256L213.2,237.552c-6.76-3.664-13.848-6.608-21.192-8.8
				V208H128z M256,312h16v32h16v-32h56c4.408,0,8,3.592,8,8v32c0,4.408-3.592,8-8,8h-88V312z M210.304,254.36l5.384,3.328
				l12.192-12.192l22.632,22.632L238.32,280.32l3.328,5.384c2.048,3.32,3.88,6.768,5.512,10.304H240v16h-20.912
				c-9.704-23.768-33.072-40-59.088-40c-35.288,0-64,28.712-64,64c0,35.288,28.712,64,64,64c26.016,0,49.384-16.232,59.088-40H240
				v16h7.152c-1.624,3.536-3.456,6.984-5.512,10.304l-3.328,5.384l12.192,12.192l-22.632,22.632l-12.192-12.192l-5.384,3.328
				c-8.744,5.4-18.216,9.336-28.144,11.68l-6.152,1.44V448h-32v-17.224l-6.16-1.456c-9.928-2.344-19.4-6.28-28.144-11.68
				l-5.384-3.328L92.12,426.504l-22.632-22.632L81.68,391.68l-3.328-5.384c-5.4-8.744-9.336-18.216-11.68-28.144L65.224,352H48v-32
				h17.224l1.456-6.16c2.344-9.928,6.28-19.4,11.68-28.144l3.328-5.384L69.496,268.12l22.632-22.632l12.192,12.192l5.384-3.328
				c8.744-5.4,18.216-9.336,28.144-11.68l6.152-1.448V224h32v17.224l6.16,1.456C192.088,245.024,201.56,248.96,210.304,254.36z
				 M112.72,344c-0.44-2.608-0.72-5.272-0.72-8c0-2.728,0.28-5.392,0.72-8H240v16H112.72z M201.352,360
				c-8.464,14.48-24.128,24-41.352,24c-17.72,0-33.192-9.68-41.504-24H201.352z M118.496,312c8.312-14.32,23.784-24,41.504-24
				c17.224,0,32.888,9.52,41.352,24H118.496z"/>
		</g>
	</g>
</g>
<g>
</g>
<g>
</g>
<g>
</g>
<g>
</g>
<g>
</g>
<g>
</g>
<g>
</g>
<g>
</g>
<g>
</g>
<g>
</g>
<g>
</g>
<g>
</g>
<g>
</g>
<g>
</g>
<g>
</g>
</svg>
