<svg style="fill: #" xmlns:dc="http://purl.org/dc/elements/1.1/" xmlns:cc="http://creativecommons.org/ns#" xmlns:rdf="http://www.w3.org/1999/02/22-rdf-syntax-ns#" xmlns:svg="http://www.w3.org/2000/svg" xmlns="http://www.w3.org/2000/svg" xmlns:sodipodi="http://sodipodi.sourceforge.net/DTD/sodipodi-0.dtd" xmlns:inkscape="http://www.inkscape.org/namespaces/inkscape" viewBox="0 0 26.458333 33.0729175" version="1.1" x="0px" y="0px"><g transform="translate(131.02975,-196.70833)"><path  d="m -118.61936,197.58247 v 0 c -0.30181,0 -0.5367,0.23503 -0.5367,0.538 v 3.42392 a 0.26855804,0.26844877 0 1 1 -0.53705,0 v -2.14815 c -0.0292,0.0125 -0.0585,0.0234 -0.0875,0.0357 -0.66619,0.28216 -1.2665,0.69066 -1.77068,1.19553 -0.0418,0.0418 -0.0824,0.0848 -0.12275,0.12806 0.24374,0.13891 0.46726,0.30902 0.66401,0.50603 0.56228,0.56305 0.91061,1.34275 0.91061,2.20061 a 0.26861003,0.26850073 0 0 1 -0.53722,0 c 0,-0.71307 -0.28778,-1.35496 -0.75359,-1.82141 -0.18647,-0.18676 -0.40148,-0.34423 -0.63747,-0.46666 -0.57398,0.75285 -0.95598,1.6583 -1.0898,2.64352 1.48246,0.53261 3.08899,0.86171 4.77691,0.93576 4.8e-4,0 4.8e-4,0 9.5e-4,0 0.1206,0.006 0.24157,0.008 0.36298,0.0125 0.12139,0.002 0.24319,0.004 0.36534,0.004 0.12356,0 0.24666,-0.001 0.36945,-0.004 0.106,-0.002 0.2116,-0.006 0.31697,-0.0104 0.0138,-6.4e-4 0.0278,-8e-4 0.0417,-0.001 1.68735,-0.0739 3.29354,-0.40257 4.77556,-0.93468 -0.13365,-0.98579 -0.51563,-1.89158 -1.08987,-2.64477 -0.23607,0.12241 -0.4513,0.27999 -0.63781,0.46674 -0.46581,0.46646 -0.75343,1.10834 -0.75343,1.82142 a 0.2686055,0.26849621 0 0 1 -0.53721,0 c 0,-0.85787 0.34832,-1.63756 0.91061,-2.20061 0.1968,-0.19699 0.42035,-0.36733 0.66417,-0.50621 -0.0403,-0.043 -0.0808,-0.0861 -0.12258,-0.12784 -0.50419,-0.50487 -1.10448,-0.91327 -1.77068,-1.19543 -0.0291,-0.0125 -0.0585,-0.024 -0.0878,-0.0359 v 2.14824 a 0.26855804,0.26844877 0 1 1 -0.53705,0 v -3.42392 c 0,-0.30296 -0.2349,-0.538 -0.53671,-0.538 z m 1.0065,0.26977 c 0.59015,-2e-5 1.07376,0.48448 1.07376,1.07466 0,0.49729 -0.3439,0.91849 -0.80507,1.03915 v 2.18659 a 0.26855902,0.26844977 0 1 1 -0.53704,0 v -2.18651 c -0.46138,-0.12053 -0.80549,-0.5418 -0.80549,-1.03923 0,-0.59018 0.4837,-1.07466 1.07384,-1.07466 z m 0,0.53647 c -0.29942,0 -0.53679,0.23759 -0.53679,0.53819 0,0.2897 0.2207,0.52006 0.50472,0.53639 a 0.26851925,0.26841 0 0 1 0.0281,-0.002 0.26851925,0.26841 0 0 1 0.035,0.002 c 0.28455,-0.0167 0.50606,-0.24633 0.50606,-0.53639 0,-0.3006 -0.2377,-0.53819 -0.53713,-0.53819 z m -1.03303,4.30193 h 2.0664 a 0.2686093,0.2685 0 0 1 0,0.537 h -2.0664 a 0.2686093,0.2685 0 0 1 0,-0.537 z m 0.35761,0.80667 a 0.26851925,0.26841 0 0 1 0.003,0 h 1.34496 a 0.26851925,0.26841 0 0 1 0.001,0 0.26851925,0.26841 0 1 1 -0.001,0.53658 h -1.34496 a 0.26851925,0.26841 0 1 1 -0.003,-0.53658 z m -5.37542,0.72862 c -0.0138,-6.3e-4 -0.0274,-4.8e-4 -0.0405,0 v 0 0 c -0.0713,0.004 -0.13261,0.0238 -0.18943,0.0539 -0.11362,0.0602 -0.20804,0.17359 -0.25769,0.30787 -0.0496,0.13433 -0.052,0.28229 -0.005,0.4022 0.0473,0.11991 0.13518,0.22266 0.32696,0.29158 l 10e-4,4.5e-4 0.001,4.5e-4 c 1.91282,0.70892 4.01342,1.09994 6.21549,1.09994 1.72337,0 3.3839,-0.24028 4.94149,-0.68421 0.10479,-0.0299 0.2091,-0.0608 0.31294,-0.0923 0.0104,-0.004 0.0207,-0.006 0.0311,-0.0104 0.0945,-0.029 0.18856,-0.0587 0.28222,-0.089 0.0331,-0.0104 0.0659,-0.0219 0.0989,-0.033 0.0737,-0.0244 0.14729,-0.0489 0.22041,-0.0744 0.1099,-0.0382 0.21934,-0.0773 0.32806,-0.11741 l 0.002,-7.7e-4 0.002,-4.7e-4 a 0.26851925,0.26840998 0 0 1 4.5e-4,0 c 0.073,-0.0259 0.13025,-0.06 0.17792,-0.0994 a 0.26851925,0.26840998 0 0 1 0.0287,-0.0209 c 0.13802,-0.12575 0.17358,-0.30204 0.14341,-0.4785 -0.0418,-0.24433 -0.20106,-0.44686 -0.5284,-0.44736 -0.0472,-4e-5 -0.094,0.006 -0.13937,0.0188 l -0.0148,0.004 c -0.008,0.002 -0.0125,0.004 -0.019,0.006 -0.007,0.002 -0.0138,0.004 -0.0207,0.006 l -0.002,7.7e-4 -0.002,4.7e-4 c -0.44837,0.16607 -0.90806,0.31376 -1.37781,0.4418 -1.29179,0.3521 -2.65968,0.55571 -4.07755,0.58719 -0.12889,0.002 -0.25822,0.004 -0.38792,0.004 -2.07525,0 -4.04939,-0.36868 -5.84286,-1.03336 l -0.001,-4.5e-4 -0.002,-4.7e-4 c -0.0212,-0.008 -0.0416,-0.0146 -0.0615,-0.0209 l -0.01,-0.002 c -0.0489,-0.0146 -0.0939,-0.0209 -0.13552,-0.0226 z m 15.10137,0.70268 -0.51538,0.89235 a 0.26851925,0.26840998 0 0 1 -0.31546,0.12116 c -0.52134,-0.16962 -1.06937,-0.24232 -1.61694,-0.2147 a 0.26851925,0.26840998 0 0 1 -0.0597,-0.004 c -0.0454,0.0236 -0.0925,0.0455 -0.14324,0.0637 -0.33768,0.12513 -0.68142,0.23967 -1.02984,0.34513 v 0.10507 c 0.0529,-0.0188 0.10618,-0.0382 0.16012,-0.0556 0.0687,-0.0222 0.13871,-0.043 0.20925,-0.0618 0.28208,-0.0756 0.56518,-0.12074 0.84595,-0.13745 1.96544,-0.11699 3.81303,1.15801 4.34213,3.13184 a 0.26858627,0.268477 0 0 1 -0.51891,0.13871 c -0.52958,-1.97559 -2.55399,-3.14367 -4.53038,-2.6143 -0.0618,0.0167 -0.12258,0.0345 -0.1827,0.0539 -0.0601,0.0188 -0.11958,0.0399 -0.17801,0.0623 -0.0499,0.0188 -0.0988,0.0397 -0.14744,0.0606 v 0.50343 c 0.19933,-0.10132 0.40872,-0.18279 0.62555,-0.24113 a 0.26851917,0.26840992 0 0 1 4.5e-4,0 c 0.31393,-0.0842 0.63891,-0.12054 0.96368,-0.108 1.42014,0.0543 2.64157,1.02889 3.00943,2.40119 0.46291,1.72689 -0.56612,3.50918 -2.29353,3.97183 a 0.26851917,0.26840992 0 0 1 -4.8e-4,0 c -1.35312,0.36091 -2.77039,-0.19094 -3.53236,-1.33006 -0.10019,0.12095 -0.20575,0.23722 -0.31605,0.3489 0.0292,0.0407 0.0586,0.081 0.0893,0.12053 0.29521,0.37872 0.66021,0.69372 1.07032,0.9304 0.82021,0.47335 1.81869,0.63391 2.80689,0.36921 0.9882,-0.26468 1.77246,-0.9029 2.24601,-1.72279 0.23677,-0.40993 0.39507,-0.86487 0.46131,-1.34039 a 0.26851925,0.26840998 0 0 1 0.27281,-0.23501 0.26851925,0.26840998 0 0 1 0.2592,0.30913 c -0.0759,0.545 -0.25748,1.06581 -0.5284,1.53485 -0.41014,0.71009 -1.02692,1.30209 -1.79175,1.67915 0.12448,0.0188 0.24614,0.0441 0.36492,0.0773 0.40753,-0.2323 0.77945,-0.52238 1.09584,-0.86919 a 0.26851925,0.26840998 0 0 1 0.33259,-0.0516 l 0.88987,0.51358 0.72303,-1.25252 -0.89264,-0.51517 a 0.26851925,0.26840998 0 0 1 -0.12089,-0.31533 c 0.16968,-0.52116 0.24252,-1.06932 0.21486,-1.6167 a 0.26851925,0.26840998 0 0 1 0.19858,-0.27253 l 0.99374,-0.2663 -0.37458,-1.39681 -0.99692,0.26716 a 0.26851925,0.26840998 0 0 1 -0.30883,-0.13808 c -0.24804,-0.48874 -0.58352,-0.92797 -0.98979,-1.29597 a 0.26851925,0.26840998 0 0 1 -0.0522,-0.33288 l 0.5137,-0.88952 z m -19.08178,1.21886 a 0.26851925,0.26840998 0 0 0 -0.26835,0.26823 v 0.62758 c -0.34344,0.12157 -0.65807,0.303 -0.93471,0.54008 l -0.54309,-0.31372 a 0.26851925,0.26840998 0 0 0 -0.3666,0.0986 l -0.708,1.22674 a 0.26851925,0.26840998 0 0 0 0.0983,0.36603 l 0.54418,0.31465 c -0.0341,0.1784 -0.0708,0.35667 -0.0717,0.53852 a 0.26851925,0.26840998 0 0 0 0,0.002 c 9.3e-4,0.18153 0.0384,0.35964 0.0726,0.53767 l -0.54502,0.31508 a 0.26851925,0.26840998 0 0 0 -0.0983,0.36603 l 0.708,1.22674 a 0.26851925,0.26840998 0 0 0 0.3666,0.0984 l 0.5451,-0.315 c 0.27632,0.2366 0.58982,0.41832 0.9327,0.53969 v 0.62956 a 0.26851925,0.26840998 0 0 0 0.26835,0.26825 h 1.41592 a 0.26851925,0.26840998 0 0 0 0.26836,-0.26825 v -0.62756 c 0.34343,-0.12158 0.65805,-0.303 0.93471,-0.54008 l 0.54309,0.31339 a 0.26851925,0.26840998 0 0 0 0.36668,-0.0984 l 0.70791,-1.22674 a 0.26851925,0.26840998 0 0 0 -0.0983,-0.36603 l -0.54418,-0.31465 c 0.0341,-0.1784 0.0708,-0.35667 0.0717,-0.53852 a 0.26851925,0.26840998 0 0 0 0,-0.002 c -9.3e-4,-0.18153 -0.0384,-0.35962 -0.0726,-0.53766 l 0.54503,-0.31509 a 0.26851925,0.26840998 0 0 0 0.0983,-0.36601 l -0.70792,-1.22676 a 0.26851925,0.26840998 0 0 0 -0.36668,-0.0986 l -0.54553,0.31491 c -0.27621,-0.23641 -0.58957,-0.41796 -0.93227,-0.53925 v -0.62958 a 0.26851925,0.26840998 0 0 0 -0.26836,-0.26825 z m 5.19842,0.13767 v 2.31458 c 0,2.67486 2.15058,4.82063 4.83292,4.82063 0.99688,0 1.92011,-0.29657 2.68699,-0.80633 a 0.26851925,0.26840998 0 0 1 0.0239,-0.0188 c 0.19351,-0.13056 0.37666,-0.27481 0.54864,-0.43117 a 0.26851925,0.26840998 0 0 1 0.075,-0.0702 c 0.22834,-0.21661 0.43552,-0.45505 0.61774,-0.71258 a 0.26851917,0.26840992 0 0 1 0.002,-0.004 c 0.0336,-0.0476 0.0662,-0.0959 0.0981,-0.14456 0.002,-0.004 0.005,-0.008 0.008,-0.0125 0.0298,-0.046 0.0589,-0.0925 0.0872,-0.13954 0.002,-0.004 0.004,-0.006 0.006,-0.0104 0.0911,-0.15249 0.17407,-0.31044 0.2482,-0.47328 0.001,-0.004 0.003,-0.006 0.004,-0.0104 0.0222,-0.0491 0.0435,-0.0986 0.0641,-0.14853 0.003,-0.008 0.007,-0.0146 0.009,-0.0228 0.0196,-0.0483 0.0384,-0.0969 0.0565,-0.14602 0.002,-0.006 0.005,-0.0125 0.007,-0.0188 0.0397,-0.10926 0.0754,-0.22044 0.10731,-0.3333 0.003,-0.0125 0.006,-0.023 0.009,-0.0347 0.0121,-0.0445 0.0238,-0.0892 0.0348,-0.13411 0.004,-0.0146 0.007,-0.0284 0.0102,-0.0428 0.0102,-0.0435 0.0196,-0.0873 0.0286,-0.13119 0.003,-0.0146 0.006,-0.028 0.009,-0.042 0.0111,-0.0562 0.0211,-0.1128 0.0301,-0.16962 4.7e-4,-0.001 4.7e-4,-0.002 6.3e-4,-0.004 0.009,-0.0572 0.0167,-0.1149 0.0237,-0.17255 0.002,-0.0146 0.004,-0.0307 0.005,-0.0462 0.005,-0.0435 0.009,-0.0869 0.013,-0.13077 0.002,-0.0188 0.003,-0.0359 0.004,-0.0539 0.003,-0.043 0.005,-0.0861 0.007,-0.1293 7.7e-4,-0.0146 0.002,-0.0309 0.002,-0.0466 2e-5,-0.002 0,-0.004 0,-0.006 0.002,-0.0587 0.003,-0.1174 0.003,-0.17673 v -0.80516 a 0.26851917,0.26840992 0 0 1 0,-0.004 v -1.50439 c -1.53038,0.41186 -3.15267,0.63325 -4.83133,0.63325 -1.67966,0 -3.30314,-0.2217 -4.83442,-0.63409 z m 11.67002,1.21859 c -0.23699,0 -0.47309,0.0311 -0.7023,0.0923 -0.27473,0.0739 -0.52708,0.20785 -0.76501,0.36292 v 0.64065 c 0,0.0516 -9.3e-4,0.10299 -0.002,0.15438 -4.8e-4,0.0125 -7.7e-4,0.023 -0.001,0.0345 0,0.008 -6e-4,0.0188 -9.2e-4,0.0278 -0.001,0.0322 -0.003,0.0643 -0.005,0.0963 -4.8e-4,0.008 -9.5e-4,0.0167 -0.002,0.0261 -0.0594,0.95309 -0.3675,1.83776 -0.86049,2.59055 0.60407,1.06766 1.8403,1.61345 3.03781,1.29423 1.44706,-0.38757 2.30156,-1.86743 1.91375,-3.31413 -0.3075,-1.14717 -1.32409,-1.95841 -2.51117,-2.00378 -0.0339,-0.001 -0.0677,-0.002 -0.10159,-0.002 z m -16.16044,0.22781 c 1.14719,0 2.08269,0.93635 2.08269,2.08385 0,1.14751 -0.9355,2.08386 -2.08269,2.08386 -1.14718,0 -2.08278,-0.93635 -2.08278,-2.08386 0,-1.1475 0.9356,-2.08385 2.08278,-2.08385 z m 0,0.53699 c -0.85665,0 -1.54556,0.68912 -1.54556,1.54686 0,0.85774 0.68891,1.54686 1.54556,1.54686 0.85666,0 1.54548,-0.68912 1.54548,-1.54686 0,-0.85774 -0.68882,-1.54686 -1.54548,-1.54686 z m 0,0.57007 c 0.53616,0 0.97628,0.44074 0.97628,0.97679 0,0.53606 -0.44012,0.9768 -0.97628,0.9768 -0.53616,0 -0.97635,-0.44074 -0.97635,-0.9768 0,-0.53605 0.44019,-0.97679 0.97635,-0.97679 z m 0,0.53698 c -0.24563,0 -0.43922,0.19344 -0.43922,0.43981 0,0.24627 0.19358,0.4398 0.43922,0.4398 0.24564,0 0.43923,-0.19344 0.43923,-0.4398 0,-0.24629 -0.19359,-0.43981 -0.43923,-0.43981 z m 12.75192,3.35022 c -0.0585,0.0485 -0.11828,0.0953 -0.17884,0.14122 0.17571,0.24103 0.35879,0.47756 0.57979,0.67842 a 0.26851925,0.26840998 0 0 1 0.0519,0.33288 l -0.0568,0.098 h 1.00415 0.0712 c -0.0617,-0.0318 -0.12252,-0.065 -0.18254,-0.0996 -0.46924,-0.2708 -0.88697,-0.63096 -1.22532,-1.06499 -0.0219,-0.028 -0.0424,-0.0572 -0.0636,-0.0861 z m -5.57677,0.78636 v 0.56278 c 0,1.16472 0.95066,2.09921 2.1481,2.09921 1.19744,0 2.14802,-0.93449 2.14802,-2.09921 v -0.56278 c -0.65757,0.2859 -1.3838,0.44477 -2.14802,0.44477 -0.76422,0 -1.49053,-0.15897 -2.1481,-0.44477 z m -6.1521,1.00057 c -1.29666,0 -2.332,1.03491 -2.332,2.33103 v 5.44876 h 3.92004 v -2.94567 -1.55097 -1.17991 -2.10324 z m 2.12467,0 v 1.83466 h 1.07426 v -1.83466 z m 1.61097,0 v 2.10324 1.17991 0.26833 h 9.12904 v -3.55148 h -1.9172 c -0.21263,1.24926 -1.3188,2.19833 -2.64728,2.19833 -1.32847,0 -2.43473,-0.94907 -2.64736,-2.19833 z m 9.66575,0 v 1.83466 h 1.07426 v -1.83466 z m 1.61089,0 v 2.10324 1.17991 1.55097 2.94559 h 3.92003 v -5.44868 c 0,-1.03347 -0.65856,-1.90024 -1.58267,-2.20935 a 0.26851925,0.26840998 0 0 1 -0.0161,-0.004 c -0.13748,-0.0451 -0.28042,-0.0777 -0.42781,-0.0969 -0.0119,-0.002 -0.0236,-0.002 -0.0354,-0.004 -0.019,-0.002 -0.0379,-0.004 -0.057,-0.006 -0.0209,-0.002 -0.0417,-0.004 -0.0626,-0.004 -0.0142,-9.5e-4 -0.0283,-0.002 -0.0426,-0.002 -0.0357,-0.002 -0.0717,-0.002 -0.10781,-0.002 z m -12.88761,2.37149 v 0.64349 h 1.07426 v -0.64349 z m 11.27672,0 v 0.64349 h 1.07426 v -0.64349 z m -11.27672,1.18041 v 1.28222 c 0,0.22179 0.15047,0.41172 0.37273,0.47514 v 0 c 0.0171,0.004 0.0345,0.008 0.0524,0.0125 0.018,0.004 0.0362,0.006 0.0548,0.008 0.0186,0.002 0.0378,0.002 0.0571,0.002 0.0192,0 0.0383,-0.001 0.0569,-0.002 0.11188,-0.0104 0.211,-0.0505 0.28976,-0.11155 0.0525,-0.0407 0.096,-0.0907 0.12806,-0.14706 0.0401,-0.0704 0.0623,-0.15104 0.0623,-0.23635 v -1.28223 z m 11.27672,0 v 0.26824 1.01398 c 0,0.22179 0.15047,0.41172 0.37272,0.47514 v 0 c 0.0171,0.004 0.0346,0.008 0.0525,0.0125 0.018,0.004 0.0362,0.006 0.0548,0.008 0.0186,0.002 0.0377,0.002 0.057,0.002 0.0194,0 0.0383,-0.001 0.057,-0.002 0.11189,-0.0104 0.21101,-0.0505 0.28977,-0.11155 0.11811,-0.0915 0.19035,-0.22987 0.19035,-0.38339 v -1.28223 z m -9.66575,0.53641 v 0.74581 c 0,0.57577 -0.49043,1.03456 -1.07375,1.03456 -0.0275,0 -0.0545,-10e-4 -0.0812,-0.004 -0.16439,-0.0125 -0.31929,-0.0606 -0.45602,-0.13725 v 2.05231 h 12.35098 v -2.05231 c -0.13706,0.0769 -0.29238,0.12534 -0.4572,0.13725 -0.0263,0.002 -0.0529,0.004 -0.0799,0.004 -0.58333,0 -1.07384,-0.45877 -1.07384,-1.03456 v -0.74581 z" style="color:#000000;font-style:normal;font-variant:normal;font-weight:normal;font-stretch:normal;font-size:medium;line-height:normal;font-family:sans-serif;font-variant-ligatures:normal;font-variant-position:normal;font-variant-caps:normal;font-variant-numeric:normal;font-variant-alternates:normal;font-feature-settings:normal;text-indent:0;text-align:start;text-decoration:none;text-decoration-line:none;text-decoration-style:solid;text-decoration-color:#000000;letter-spacing:normal;word-spacing:normal;text-transform:none;writing-mode:lr-tb;direction:ltr;text-orientation:mixed;dominant-baseline:auto;baseline-shift:baseline;text-anchor:start;white-space:normal;shape-padding:0;clip-rule:nonzero;display:inline;overflow:visible;visibility:visible;opacity:1;isolation:auto;mix-blend-mode:normal;color-interpolation:sRGB;color-interpolation-filters:linearRGB;solid-color:#000000;solid-opacity:1;vector-effect:none;fill:#adb36e;fill-opacity:1;fill-rule:nonzero;stroke:none;stroke-width:2.64583325;stroke-linecap:round;stroke-linejoin:miter;stroke-miterlimit:4;stroke-dasharray:none;stroke-dashoffset:0;stroke-opacity:1;color-rendering:auto;image-rendering:auto;shape-rendering:auto;text-rendering:auto;enable-background:accumulate"/></g></svg>
