<svg xmlns="http://www.w3.org/2000/svg" data-name="Layer 1" style="fill: #8ab6d6;" viewBox="0 0 48 60" x="0px" y="0px"><polygon points="10.5 17.25 6.82 20.32 10.5 22.47 10.5 17.25"/><polygon points="24 6 22.8 7 25.2 7 24 6"/><polygon points="37.5 17.25 37.5 22.47 41.18 20.32 37.5 17.25"/><path d="M25.85,17.1a1.29,1.29,0,1,0-1.29,1.29A1.3,1.3,0,0,0,25.85,17.1Z"/><polygon points="37.5 23.63 36.5 24.21 24.99 30.92 36.5 37.63 37.5 38.21 38.84 39 42 40.84 42 21 37.5 23.63"/><polygon points="36.86 39 35.14 38 24 31.5 23.01 30.92 11.5 24.21 10.5 23.63 6 21 6 40.84 6 42 42 42 37.5 39.37 36.86 39"/><path d="M21.2,22.11a.7.7,0,1,0,.69.69A.69.69,0,0,0,21.2,22.11Z"/><path d="M36.5,23.05V8h-25V23.05L24,30.34Zm-13.11.22h-.66a.79.79,0,0,1-.12.3l.46.46-.65.65L22,24.22a.79.79,0,0,1-.3.12V25h-.93v-.66a.79.79,0,0,1-.3-.12l-.46.46L19.32,24l.46-.46a.79.79,0,0,1-.12-.3H19v-.93h.66a.79.79,0,0,1,.12-.3l-.46-.46.65-.65.46.46a.79.79,0,0,1,.3-.12v-.66h.93v.66a.79.79,0,0,1,.3.12l.46-.46.65.65-.46.46a.79.79,0,0,1,.12.3h.66Zm-.27-3.51-.85.84-1.22-1.21.85-.85a2.7,2.7,0,0,1-.23-.58H20.46V16.23h1.21a3.57,3.57,0,0,1,.23-.57l-.85-.85,1.22-1.22.85.85a2.7,2.7,0,0,1,.58-.23V13h1.72v1.21a2.7,2.7,0,0,1,.58.23l.85-.85,1.22,1.22-.85.85a3.57,3.57,0,0,1,.23.57h1.21V18H27.45a2.7,2.7,0,0,1-.23.58l.85.85L26.85,20.6,26,19.76a2.7,2.7,0,0,1-.58.23V21.2H23.7V20A2.7,2.7,0,0,1,23.12,19.76Z"/></svg>
