<svg xmlns="http://www.w3.org/2000/svg" xmlns:xlink="http://www.w3.org/1999/xlink" version="1.1" x="0px" y="0px" viewBox="0 0 64 80" style="enable-background:new 0 0 64 64; fill: #c1a1d3;" xml:space="preserve"><g><circle cx="32" cy="9" r="6"/><path d="M15,48h10c1.103,0,2-0.897,2-2s-0.897-2-2-2H15c-1.103,0-2,0.897-2,2S13.897,48,15,48z"/><path d="M33.917,27.52l-1.576-10.503C32.227,17.014,32.115,17,32,17s-0.227,0.014-0.341,0.017L30.083,27.52L32,28.798L33.917,27.52   z"/><path d="M36.083,28.48L32,31.202l-4.083-2.722l1.688-11.249C23.578,18.359,19,23.651,19,30v2h3v-8h2v8h16v-8h2v8h3v-2   c0-6.349-4.578-11.641-10.604-12.769L36.083,28.48z"/><rect x="5" y="40" width="2" height="21"/><rect x="57" y="40" width="2" height="21"/><path d="M9,57h46V40H9V57z M15,42h10c2.206,0,4,1.794,4,4s-1.794,4-4,4H15c-2.206,0-4-1.794-4-4S12.794,42,15,42z"/><path d="M59,34H5c-1.103,0-2,0.897-2,2s0.897,2,2,2h54c1.103,0,2-0.897,2-2S60.103,34,59,34z"/><polygon points="25,13 23,13 23,5 21,5 21,13 19,13 19,3 17,3 17,13 15,13 15,5 13,5 13,13 11,13 11,7 9,7 9,13 7,13 7,9 5,9 5,13    3,13 3,15 25,15  "/><path d="M52,21c4.962,0,9-4.038,9-9s-4.038-9-9-9s-9,4.038-9,9S47.038,21,52,21z M57,11h2v2h-2V11z M52,13c-1.654,0-3-1.346-3-3V7   h2V5h2v2.184c1.161,0.414,2,1.514,2,2.816h-2c0-0.551-0.449-1-1-1h-1v1c0,0.551,0.449,1,1,1c1.654,0,3,1.346,3,3v3h-2v2h-2v-2.184   c-1.161-0.414-2-1.514-2-2.816h2c0,0.551,0.449,1,1,1h1v-1C53,13.449,52.551,13,52,13z M45,11h2v2h-2V11z"/></g></svg>
