<?xml version="1.0" encoding="iso-8859-1"?>
<!-- Generator: Adobe Illustrator 19.0.0, SVG Export Plug-In . SVG Version: 6.00 Build 0)  -->
<svg version="1.1" id="Layer_1" xmlns="http://www.w3.org/2000/svg" xmlns:xlink="http://www.w3.org/1999/xlink" x="0px" y="0px"
	 viewBox="0 0 496 496" style="enable-background:new 0 0 496 496; fill: #14274e;" xml:space="preserve">
<g>
	<g>
		<g>
			<path d="M472,32h-72V0H100.688L0,100.688V496h400V192h72c13.232,0,24-10.768,24-24V56C496,42.768,485.232,32,472,32z M96,27.312
				V96H27.312L96,27.312z M384,480H16V112h96V16h272v16H184c-13.232,0-24,10.768-24,24v112c0,13.232,10.768,24,24,24h200V480z
				 M480,168c0,4.408-3.584,8-8,8H184c-4.416,0-8-3.592-8-8V56c0-4.408,3.584-8,8-8h288c4.416,0,8,3.592,8,8V168z"/>
			<rect x="32" y="128" width="16" height="16"/>
			<rect x="64" y="128" width="16" height="16"/>
			<rect x="32" y="160" width="16" height="16"/>
			<polygon points="352,76.688 328,100.688 304,76.688 304,64 288,64 288,83.312 316.688,112 288,140.688 288,160 304,160 
				304,147.312 328,123.312 352,147.312 352,160 368,160 368,140.688 339.312,112 368,83.312 368,64 352,64 			"/>
			<polygon points="384,160 464,160 464,144 400,144 400,120 448,120 448,104 400,104 400,80 464,80 464,64 384,64 			"/>
			<polygon points="192,160 272,160 272,144 208,144 208,120 256,120 256,104 208,104 208,80 272,80 272,64 192,64 			"/>
			<path d="M168,208v21.144c-5.264,1.696-10.376,3.816-15.28,6.32l-14.944-14.944l-45.248,45.256l14.944,14.944
				c-2.512,4.904-4.624,10.016-6.328,15.28H80v24H58.232l-29.336,88H56v56h192h8h88v-56h27.104l-29.336-88H320v-24h-21.144
				c-1.704-5.264-3.816-10.376-6.328-15.28l14.944-14.944l-45.248-45.256l-14.944,14.944c-4.904-2.504-10.016-4.624-15.28-6.32V208
				H168z M51.104,392l18.664-56h167.136l-18.664,56H51.104z M160.808,320c3.72-18.232,19.872-32,39.192-32s35.472,13.768,39.192,32
				h-2.296H160.808z M240,448H72v-40h157.768L240,377.296V448z M328,448h-72v-70.704L266.232,408H328V448z M330.232,336l18.664,56
				H277.76l-18.664-56H330.232z M244.616,252.256l5.344,3.16l12.264-12.264l22.624,22.632l-12.256,12.264l3.152,5.336
				c4.16,7.04,7.304,14.648,9.36,22.624l1.552,5.992H304v8h-48h-0.64c-3.904-27.096-27.208-48-55.36-48s-51.456,20.904-55.36,48H96
				v-8h17.344l1.552-6c2.056-7.976,5.2-15.584,9.36-22.624l3.152-5.336l-12.256-12.264l22.624-22.632l12.264,12.264l5.344-3.16
				c7.032-4.152,14.64-7.304,22.616-9.36l6-1.544V224h32v17.344l6,1.544C229.976,244.952,237.584,248.104,244.616,252.256z"/>
		</g>
	</g>
</g>
<g>
</g>
<g>
</g>
<g>
</g>
<g>
</g>
<g>
</g>
<g>
</g>
<g>
</g>
<g>
</g>
<g>
</g>
<g>
</g>
<g>
</g>
<g>
</g>
<g>
</g>
<g>
</g>
<g>
</g>
</svg>
