<svg version="1.1" xmlns="http://www.w3.org/2000/svg" xmlns:xlink="http://www.w3.org/1999/xlink" x="0px" y="0px" viewBox="0 0 100 113.63875" enable-background="new 0 0 100 90.911" xml:space="preserve" ><path style="fill: #ffba93;"  fill="#010101" d="M83.557,32.118c8.879-0.004,16.057-7.194,16.064-16.057C99.614,7.189,92.436,0.008,83.557,0
	C74.685,0.008,67.5,7.189,67.5,16.061C67.508,24.924,74.685,32.114,83.557,32.118z"/><path style="fill: #ffba93;"  fill="#010101" d="M17.804,1.447c-8.872,0-16.061,7.194-16.061,16.065c0.004,8.859,7.189,16.049,16.061,16.053
	c8.871-0.004,16.048-7.194,16.057-16.053C33.853,8.645,26.675,1.447,17.804,1.447z M17.804,27.485
	c-5.517-0.008-9.973-4.468-9.977-9.973c0.004-5.512,4.46-9.977,9.977-9.981c5.508,0.004,9.969,4.469,9.973,9.981
	C27.773,23.017,23.312,27.477,17.804,27.485z"/><path style="fill: #ffba93;"  fill="#010101" d="M96.958,35.188H71.397c-1.735,0-3.297,0.67-4.694,1.62c-0.197,0.124-0.395,0.292-0.592,0.452
	c-2.097,1.599-3.791,3.729-5.016,4.954V42.3L32.562,71.483c-2.241,2.277-2.212,5.944,0.065,8.18
	c1.057,1.045,2.405,1.596,3.782,1.661c1.583,0.082,3.198-0.493,4.403-1.718l20.283-20.588c0,13.114,0,28.866,0,28.866
	c0,1.67,1.364,3.026,3.042,3.026h32.821c1.677,0,3.041-1.356,3.041-3.026V38.222C100,36.549,98.635,35.188,96.958,35.188z"/><path style="fill: #ffba93;"  fill="#010101" d="M43.908,82.656c-2.109,2.138-4.933,3.141-7.712,3.009c-2.405-0.115-4.772-1.085-6.618-2.902
	c-3.979-3.921-4.033-10.343-0.103-14.321l4.505-4.58H3.149c-1.673,0-3.038,1.365-3.038,3.042v20.851
	c0,1.686,1.365,3.042,3.038,3.042H56.31L56.277,70.11L43.908,82.656z"/><path style="fill: #ffba93;"  fill="#010101" d="M52.775,37.688c-1.957-1.94-5.106-1.932-7.046,0.033l-8.283,8.37l-3.75-6.886
	c-0.871-1.607-2.553-2.623-4.382-2.623H6.421C1.735,36.582,0,37.922,0,42.608v10.91c0,4.177,0.683,5.903,5.02,5.903l31.25-0.065
	c1.426,0,2.713-0.601,3.625-1.562l12.92-13.06C54.748,42.777,54.732,39.62,52.775,37.688z M25.29,45.918
	c0,1.278-0.987,1.978-2.191,1.546l-5.549-1.974l-5.003,1.55c-1.225,0.378-2.228-0.361-2.228-1.645v-2.927
	c0-1.283,0.986-1.981,2.195-1.55l5.554,1.973l5.003-1.545c1.221-0.378,2.22,0.357,2.22,1.64V45.918z"/>
	</svg>