<?xml version="1.0" encoding="iso-8859-1"?>
<!-- Generator: Adobe Illustrator 19.0.0, SVG Export Plug-In . SVG Version: 6.00 Build 0)  -->
<svg version="1.1" id="Layer_1" xmlns="http://www.w3.org/2000/svg" xmlns:xlink="http://www.w3.org/1999/xlink" x="0px" y="0px"
	 viewBox="0 0 496 496" style="enable-background:new 0 0 496 496; fill: #14274e;" xml:space="preserve">
<g>
	<g>
		<g>
			<path d="M472,32h-72V0H100.688L0,100.688V496h400V192h72c13.232,0,24-10.768,24-24V56C496,42.768,485.232,32,472,32z M96,27.312
				V96H27.312L96,27.312z M384,480H16V112h96V16h272v16H184c-13.232,0-24,10.768-24,24v112c0,13.232,10.768,24,24,24h200V480z
				 M480,168c0,4.416-3.592,8-8,8H184c-4.408,0-8-3.584-8-8V56c0-4.416,3.592-8,8-8h288c4.408,0,8,3.584,8,8V168z"/>
			<path d="M232,80c13.232,0,24,10.768,24,24h16c0-22.056-17.944-40-40-40c-22.056,0-40,17.944-40,40v16c0,22.056,17.944,40,40,40
				c9.04,0,17.296-3.128,24-8.208V160h16v-40h-16h-16v16h9.76c-4.392,4.872-10.696,8-17.76,8c-13.232,0-24-10.768-24-24v-16
				C208,90.768,218.768,80,232,80z"/>
			<polygon points="384,112 384,120 384,160 400,160 400,120 448,120 448,104 400,104 400,80 464,80 464,64 384,64 			"/>
			<rect x="32" y="128" width="16" height="16"/>
			<rect x="64" y="128" width="16" height="16"/>
			<rect x="32" y="160" width="16" height="16"/>
			<polygon points="288,80 320,80 320,144 288,144 288,160 368,160 368,144 336,144 336,80 368,80 368,64 288,64 			"/>
			<path d="M72,336c0,70.576,57.424,128,128,128s128-57.424,128-128s-57.424-128-128-128S72,265.424,72,336z M200,224
				c61.76,0,112,50.24,112,112s-50.24,112-112,112S88,397.76,88,336S138.24,224,200,224z"/>
			<path d="M200,432c52.936,0,96-43.064,96-96h-16c0,44.112-35.888,80-80,80s-80-35.888-80-80h-16C104,388.936,147.064,432,200,432z
				"/>
			<path d="M152,320c13.232,0,24-10.768,24-24s-10.768-24-24-24s-24,10.768-24,24S138.768,320,152,320z M152,288
				c4.408,0,8,3.584,8,8c0,4.416-3.592,8-8,8s-8-3.584-8-8C144,291.584,147.592,288,152,288z"/>
			<path d="M248,320c13.232,0,24-10.768,24-24s-10.768-24-24-24s-24,10.768-24,24S234.768,320,248,320z M248,288
				c4.408,0,8,3.584,8,8c0,4.416-3.592,8-8,8c-4.408,0-8-3.584-8-8C240,291.584,243.592,288,248,288z"/>
		</g>
	</g>
</g>
<g>
</g>
<g>
</g>
<g>
</g>
<g>
</g>
<g>
</g>
<g>
</g>
<g>
</g>
<g>
</g>
<g>
</g>
<g>
</g>
<g>
</g>
<g>
</g>
<g>
</g>
<g>
</g>
<g>
</g>
</svg>
