<?xml version="1.0" encoding="iso-8859-1"?>
<!-- Generator: Adobe Illustrator 19.0.0, SVG Export Plug-In . SVG Version: 6.00 Build 0)  -->
<svg version="1.1" id="Layer_1" xmlns="http://www.w3.org/2000/svg" xmlns:xlink="http://www.w3.org/1999/xlink" x="0px" y="0px"
	 viewBox="0 0 496 496" style="enable-background:new 0 0 496 496; fill: #14274e;" xml:space="preserve">
<g>
	<g>
		<g>
			<path d="M472,32h-72V0H100.688L0,100.688V496h400V192h72c13.232,0,24-10.768,24-24V56C496,42.768,485.232,32,472,32z M96,27.312
				V96H27.312L96,27.312z M384,480H16V112h96V16h272v16H184c-13.232,0-24,10.768-24,24v112c0,13.232,10.768,24,24,24h200V480z
				 M480,168c0,4.408-3.584,8-8,8H184c-4.416,0-8-3.592-8-8V56c0-4.408,3.584-8,8-8h288c4.416,0,8,3.592,8,8V168z"/>
			<path d="M340,64h-52v48v8v40h16v-40h36c15.44,0,28-12.56,28-28S355.44,64,340,64z M340,104h-36V80h36c6.616,0,12,5.384,12,12
				C352,98.616,346.616,104,340,104z"/>
			<path d="M244,64h-52v48v8v40h16v-40h36c15.44,0,28-12.56,28-28S259.44,64,244,64z M244,104h-36V80h36c6.616,0,12,5.384,12,12
				C256,98.616,250.616,104,244,104z"/>
			<rect x="32" y="128" width="16" height="16"/>
			<rect x="64" y="128" width="16" height="16"/>
			<rect x="32" y="160" width="16" height="16"/>
			<polygon points="384,80 416,80 416,160 432,160 432,80 464,80 464,64 384,64 			"/>
			<path d="M256,352v-8H152V240h-8c-61.76,0-112,50.24-112,112s50.24,112,112,112c25.072,0,49.456-8.552,69.112-24H336
				c17.648,0,32-14.352,32-32s-14.352-32-32-32h-82.68C255.064,368.112,256,360.08,256,352z M144,448c-52.936,0-96-43.064-96-96
				c0-50.24,38.8-91.592,88-95.664V360h103.664c-0.456,5.4-1.528,10.728-2.896,16h-95.432l-42.672,32l42.672,32h40.816
				C170.184,445.192,157.208,448,144,448z M144,394v28l-18.664-14L144,394z M320,392h16c8.824,0,16,7.176,16,16
				c0,8.824-7.176,16-16,16h-16V392z M288,392h16v32h-16V392z M272,392v32H160v-32H272z"/>
			<path d="M168,208v120h120v-8c0-61.76-50.24-112-112-112H168z M184,224.336c46.56,3.856,83.816,41.096,87.672,87.664H184V224.336z
				"/>
			<rect x="272" y="344" width="16" height="16"/>
			<rect x="304" y="344" width="16" height="16"/>
			<rect x="336" y="344" width="16" height="16"/>
		</g>
	</g>
</g>
<g>
</g>
<g>
</g>
<g>
</g>
<g>
</g>
<g>
</g>
<g>
</g>
<g>
</g>
<g>
</g>
<g>
</g>
<g>
</g>
<g>
</g>
<g>
</g>
<g>
</g>
<g>
</g>
<g>
</g>
</svg>
