<svg xmlns="http://www.w3.org/2000/svg" xmlns:xlink="http://www.w3.org/1999/xlink" version="1.1" x="0px" y="0px" viewBox="0 0 67 83.75" style="fill: #fed049;" enable-background="new 0 0 67 67" xml:space="preserve"><g><path d="M53.11272,21.40725l6.50418-5.42901l-8.60125-8.58l-5.42913,6.48287c-2.09706-1.29868-4.36436-2.23546-6.77018-2.79968   l0.76642-8.42029H27.41529l0.76655,8.42029c-2.39516,0.56423-4.66272,1.501-6.77044,2.81034l-5.41835-6.49352l-8.60124,8.58   l6.50405,5.42901c-1.30933,2.09713-2.24598,4.36449-2.81021,6.78096l-8.43101-0.76642v12.15676l8.43101-0.76649   c0.56423,2.41647,1.50087,4.6839,2.81021,6.78103l-6.50405,5.429l8.60124,8.58l5.41835-6.49352   c2.10772,1.30933,4.37528,2.24612,6.77044,2.81028l-0.76655,8.42036h12.16748l-0.76642-8.42036   c2.40582-0.56416,4.67311-1.50094,6.77018-2.79968l5.42913,6.48293l8.60125-8.58l-6.50418-5.429   c1.29868-2.09713,2.23546-4.36456,2.79968-6.78103l8.43102,0.76649V27.42179l-8.43102,0.76642   C55.34818,25.77174,54.4114,23.50438,53.11272,21.40725z M46.31045,42.92114c-2.89545,3.92807-7.55804,6.47221-12.81668,6.47221   c-5.24812,0-9.91071-2.54414-12.80616-6.48287c-1.93749-2.63998-3.0766-5.88681-3.0766-9.41035   c0-8.78226,7.11115-15.89322,15.88276-15.89322c8.79291,0,15.90381,7.11096,15.90381,15.89322   C49.39757,37.02368,48.25846,40.2811,46.31045,42.92114z"/><path d="M33.50442,35.54405c4.37502,0,7.94125-3.56617,7.94125-7.95197s-3.56623-7.94131-7.94125-7.94131   c-4.38593,0-7.95203,3.55551-7.95203,7.94131S29.11849,35.54405,33.50442,35.54405z"/><polygon points="29.19009,37.7263 33.51144,43.45177 37.83278,37.7263  "/><path d="M21.37943,40.1108c2.17607,4.0293,6.37254,6.74965,11.00719,7.11096v-1.6713l-5.86549-7.77095   C24.55167,37.9498,22.7527,38.78016,21.37943,40.1108z"/><path d="M34.51566,45.59309v1.62868c4.89688-0.38074,9.07178-3.37866,11.00706-7.10031   c-1.36261-1.3413-3.16171-2.161-5.1096-2.34195L34.51566,45.59309z"/><rect x="60.93935" y="13.07873" width="5.56064" height="2.12903"/><rect x="58.86545" y="7.24573" width="7.63458" height="2.12903"/><rect x="60.93935" y="1.41272" width="5.56064" height="2.12903"/><rect x="54.97643" y="7.24573" width="2.91702" height="2.12903"/><rect x="0.50001" y="63.45825" width="5.56064" height="2.12903"/><rect x="0.49997" y="57.62524" width="7.63458" height="2.12903"/><rect x="0.50001" y="51.79223" width="5.56064" height="2.12903"/><rect x="9.10655" y="57.62524" width="2.91702" height="2.12903"/></g></svg>
