<?xml version="1.0" encoding="iso-8859-1"?>
<!-- Generator: Adobe Illustrator 19.0.0, SVG Export Plug-In . SVG Version: 6.00 Build 0)  -->
<svg version="1.1" id="Layer_1" xmlns="http://www.w3.org/2000/svg" xmlns:xlink="http://www.w3.org/1999/xlink" x="0px" y="0px"
	 viewBox="0 0 496 496" style="enable-background:new 0 0 496 496; fill: #14274e;" xml:space="preserve">
<g>
	<g>
		<g>
			<path d="M472,32h-72V0H100.688L0,100.688V496h400V192h72c13.232,0,24-10.768,24-24V56C496,42.768,485.232,32,472,32z M96,27.312
				V96H27.312L96,27.312z M384,480H16V112h96V16h272v16H184c-13.232,0-24,10.768-24,24v112c0,13.232,10.768,24,24,24h200V480z
				 M480,168c0,4.408-3.592,8-8,8H184c-4.408,0-8-3.592-8-8V56c0-4.408,3.592-8,8-8h288c4.408,0,8,3.592,8,8V168z"/>
			<polygon points="304,64 288,64 288,160 368,160 368,144 304,144 			"/>
			<path d="M32,464h336V208H32V464z M288,224h64v64h-64V224z M288,304h64v64h-64V304z M288,384h64v64h-64V384z M208,224h64v64h-64
				V224z M208,384h32v-16h-32v-64h64v64h-16v16h16v64h-64V384z M128,224h64v64h-64V224z M128,304h64v64h-64V304z M128,384h64v64h-64
				V384z M48,224h64v64H48V224z M48,304h64v64H48V304z M48,384h64v64H48V384z"/>
			<rect x="32" y="128" width="16" height="16"/>
			<rect x="64" y="128" width="16" height="16"/>
			<rect x="32" y="160" width="16" height="16"/>
			<rect x="320" y="416" width="16" height="16"/>
			<polygon points="256,69.192 232,99.192 208,69.192 208,64 192,64 192,74.808 221.76,112 192,149.192 192,160 208,160 
				208,154.808 232,124.808 256,154.808 256,160 272,160 272,149.192 242.24,112 272,74.808 272,64 256,64 			"/>
			<path d="M436,64h-24c-15.44,0-28,12.56-28,28s12.56,28,28,28h24c6.616,0,12,5.384,12,12c0,6.616-5.384,12-12,12h-24
				c-6.616,0-12-5.384-12-12v-4h-16v4c0,15.44,12.56,28,28,28h24c15.44,0,28-12.56,28-28s-12.56-28-28-28h-24
				c-6.616,0-12-5.384-12-12c0-6.616,5.384-12,12-12h24c6.616,0,12,5.384,12,12v4h16v-4C464,76.56,451.44,64,436,64z"/>
		</g>
	</g>
</g>
<g>
</g>
<g>
</g>
<g>
</g>
<g>
</g>
<g>
</g>
<g>
</g>
<g>
</g>
<g>
</g>
<g>
</g>
<g>
</g>
<g>
</g>
<g>
</g>
<g>
</g>
<g>
</g>
<g>
</g>
</svg>
