<svg xmlns:dc="http://purl.org/dc/elements/1.1/" xmlns:cc="http://creativecommons.org/ns#" xmlns:rdf="http://www.w3.org/1999/02/22-rdf-syntax-ns#" xmlns:svg="http://www.w3.org/2000/svg" xmlns="http://www.w3.org/2000/svg" xmlns:sodipodi="http://sodipodi.sourceforge.net/DTD/sodipodi-0.dtd" xmlns:inkscape="http://www.inkscape.org/namespaces/inkscape" viewBox="0 0 16.933333 21.1666675" version="1.1" x="0px" y="0px"><g transform="translate(0,-280.06665)"><path style="color:#91c788;font-style:normal;font-variant:normal;font-weight:normal;font-stretch:normal;font-size:medium;line-height:normal;font-family:sans-serif;font-variant-ligatures:normal;font-variant-position:normal;font-variant-caps:normal;font-variant-numeric:normal;font-variant-alternates:normal;font-feature-settings:normal;text-indent:0;text-align:start;text-decoration:none;text-decoration-line:none;text-decoration-style:solid;text-decoration-color:#000000;letter-spacing:normal;word-spacing:normal;text-transform:none;writing-mode:lr-tb;direction:ltr;text-orientation:mixed;dominant-baseline:auto;baseline-shift:baseline;text-anchor:start;white-space:normal;shape-padding:0;clip-rule:nonzero;display:inline;overflow:visible;visibility:visible;opacity:1;isolation:auto;mix-blend-mode:normal;color-interpolation:sRGB;color-interpolation-filters:linearRGB;solid-color:#000000;solid-opacity:1;vector-effect:none;fill:#91c788;fill-opacity:1;fill-rule:nonzero;stroke:none;stroke-width:0.52899998;stroke-linecap:butt;stroke-linejoin:round;stroke-miterlimit:4;stroke-dasharray:none;stroke-dashoffset:0;stroke-opacity:1;color-rendering:auto;image-rendering:auto;shape-rendering:auto;text-rendering:auto;enable-background:accumulate" d="m 4.23333,280.86038 c -1.89657,0 -3.43958,1.54301 -3.43958,3.43959 0,1.08298 0.50454,2.0495 1.28933,2.68045 l -0.72761,5.5206 h 14.75156 l -0.87592,-6.64766 a 0.26460485,0.26460982 0 0 0 -0.26148,-0.23048 h -2.7988 v -1.05833 h 2.64687 a 0.26462607,0.26470735 0 0 0 0.26355,-0.26355 v -2.64738 A 0.26462607,0.26470735 0 0 0 14.8177,281.38955 H 8.9948 a 0.26462607,0.26470735 0 0 0 -0.26355,0.26407 v 2.64738 a 0.26462607,0.26470735 0 0 0 0.26355,0.26355 h 2.64687 v 1.05833 H 7.40782 c 0.17037,-0.40741 0.2651,-0.85442 0.2651,-1.32291 0,-1.89658 -1.54303,-3.43959 -3.43959,-3.43959 z m 0,0.52969 c 1.61057,0 2.91042,1.29932 2.91042,2.9099 0,1.61057 -1.29985,2.91041 -2.91042,2.91041 -1.61058,0 -2.91041,-1.29984 -2.91041,-2.91041 0,-1.61058 1.29983,-2.9099 2.91041,-2.9099 z m 5.02709,0.52917 h 5.29166 v 2.11821 H 9.26042 Z m 0.55913,5.02656 c 0.58176,0 1.05887,0.4776 1.05885,1.05937 2e-5,0.58176 -0.47709,1.0573 -1.05885,1.0573 -0.58176,0 -1.05781,-0.47554 -1.05781,-1.0573 0,-0.58177 0.47605,-1.05937 1.05781,-1.05937 z m 3.17552,0 c 0.58124,0 1.05834,0.4776 1.05833,1.05937 0,0.58176 -0.47709,1.0573 -1.05833,1.0573 -0.58123,0 -1.05833,-0.47554 -1.05833,-1.0573 0,-0.58177 0.4771,-1.05937 1.05833,-1.05937 z m -3.17552,0.52969 c -0.29559,0 -0.52968,0.23409 -0.52968,0.52968 0,0.29558 0.23409,0.52968 0.52968,0.52968 0.29558,0 0.52919,-0.2341 0.52917,-0.52968 2e-5,-0.29559 -0.23359,-0.52968 -0.52917,-0.52968 z m 3.17552,0 c -0.29532,0 -0.52916,0.23409 -0.52917,0.52968 0,0.29558 0.23385,0.52968 0.52917,0.52968 0.29533,0 0.52917,-0.2341 0.52917,-0.52968 0,-0.29559 -0.23384,-0.52968 -0.52917,-0.52968 z m -9.525,1.85156 h 3.175 v 1.5875 h -3.175 z m 6.34948,0.26458 c 0.58176,0 1.05887,0.47711 1.05885,1.05834 2e-5,0.58123 -0.47709,1.05833 -1.05885,1.05833 -0.58176,0 -1.05781,-0.4771 -1.05781,-1.05833 0,-0.58123 0.47605,-1.05834 1.05781,-1.05834 z m 3.17552,0 c 0.58124,0 1.05834,0.47711 1.05833,1.05834 0,0.58123 -0.47709,1.05833 -1.05833,1.05833 -0.58123,0 -1.05833,-0.4771 -1.05833,-1.05833 0,-0.58123 0.4771,-1.05834 1.05833,-1.05834 z m -3.17552,0.52917 c -0.29559,0 -0.52968,0.23386 -0.52968,0.52917 0,0.29531 0.23409,0.52916 0.52968,0.52916 0.29558,0 0.52919,-0.23385 0.52917,-0.52916 2e-5,-0.29531 -0.23359,-0.52917 -0.52917,-0.52917 z m 3.17552,0 c -0.29532,0 -0.52916,0.23386 -0.52917,0.52917 0,0.29531 0.23385,0.52916 0.52917,0.52916 0.29532,0 0.52917,-0.23385 0.52917,-0.52916 0,-0.29531 -0.23385,-0.52917 -0.52917,-0.52917 z m -11.67215,2.90939 v 2.91248 a 0.2646144,0.26466269 0 0 0 0.26354,0.26355 h 14.2875 a 0.2646144,0.26466269 0 0 0 0.26562,-0.26355 v -2.91248 z m 0.79478,2.11769 h 1.58543 a 0.26556045,0.26464501 0 1 1 0,0.52917 H 2.1177 a 0.26556045,0.26464501 0 1 1 0,-0.52917 z m 2.64687,0 h 0.52554 a 0.26654986,0.26464501 0 1 1 0,0.52917 H 4.76457 a 0.26654986,0.26464501 0 1 1 0,-0.52917 z"/><path d="m 4.22959,281.92473 c -0.14541,0.003 -0.26142,0.12215 -0.25977,0.26757 v 0.28826 c -0.4711,0.12623 -0.79492,0.54945 -0.79492,1.02815 0,0.58137 0.47723,1.05861 1.0586,1.05859 0.29539,0 0.52929,0.23391 0.52929,0.5293 0,0.29321 -0.23309,0.52197 -0.52539,0.52539 -0.003,-4e-5 -0.005,-4e-5 -0.008,0 -0.29229,-0.003 -0.52539,-0.23218 -0.52539,-0.52539 0,-0.35287 -0.5293,-0.35287 -0.5293,0 0,0.47852 0.32334,0.89961 0.79492,1.02272 v 0.29173 c 0,0.35287 0.5293,0.35287 0.5293,0 v -0.29173 c 0.46273,-0.11316 0.79297,-0.54462 0.79297,-1.02272 0,-0.58137 -0.47723,-1.05859 -1.05859,-1.05859 -0.29538,0 -0.5293,-0.23391 -0.5293,-0.5293 0,-0.29321 0.2331,-0.52818 0.52539,-0.53159 0.003,4e-5 0.005,4e-5 0.008,0 0.2923,0.003 0.52539,0.23838 0.52539,0.53159 0,0.35287 0.5293,0.35287 0.5293,0 0,-0.47827 -0.32286,-0.90218 -0.79297,-1.02815 v -0.28826 c 0.002,-0.14924 -0.1203,-0.27035 -0.26953,-0.26757 z" style="color:#000000;font-style:normal;font-variant:normal;font-weight:normal;font-stretch:normal;font-size:medium;line-height:normal;font-family:sans-serif;font-variant-ligatures:normal;font-variant-position:normal;font-variant-caps:normal;font-variant-numeric:normal;font-variant-alternates:normal;font-feature-settings:normal;text-indent:0;text-align:start;text-decoration:none;text-decoration-line:none;text-decoration-style:solid;text-decoration-color:#000000;letter-spacing:normal;word-spacing:normal;text-transform:none;writing-mode:lr-tb;direction:ltr;text-orientation:mixed;dominant-baseline:auto;baseline-shift:baseline;text-anchor:start;white-space:normal;shape-padding:0;clip-rule:nonzero;display:inline;overflow:visible;visibility:visible;opacity:1;isolation:auto;mix-blend-mode:normal;color-interpolation:sRGB;color-interpolation-filters:linearRGB;solid-color:#000000;solid-opacity:1;vector-effect:none;fill:#91c788;fill-opacity:1;fill-rule:nonzero;stroke:none;stroke-width:0.52916676;stroke-linecap:round;stroke-linejoin:round;stroke-miterlimit:4;stroke-dasharray:none;stroke-dashoffset:0;stroke-opacity:1;color-rendering:auto;image-rendering:auto;shape-rendering:auto;text-rendering:auto;enable-background:accumulate"/></g></svg>
