<?xml version="1.0" encoding="iso-8859-1"?>
<!-- Generator: Adobe Illustrator 19.0.0, SVG Export Plug-In . SVG Version: 6.00 Build 0)  -->
<svg version="1.1" id="Layer_1" xmlns="http://www.w3.org/2000/svg" xmlns:xlink="http://www.w3.org/1999/xlink" x="0px" y="0px"
	 viewBox="0 0 344.445 344.445" style="enable-background:new 0 0 344.445 344.445; fill: #14274e;" xml:space="preserve">
<g>
	<g>
		<path d="M278.8,235.561c6.517-8.628,10.089-19.061,10.089-30.006c0-6.778-1.389-13.511-4.044-19.711
			C294.528,176.45,300,163.617,300,150c0-23.483-16.406-43.622-38.889-48.722V88.889C261.111,39.878,221.233,0,172.222,0
			c-49.011,0-88.889,39.878-88.889,88.889v12.389c-22.483,5.1-38.889,25.239-38.889,48.722c0,13.617,5.472,26.45,15.156,35.844
			c-2.656,6.2-4.044,12.933-4.044,19.711c0,10.944,3.572,21.378,10.089,30.006c-16.522,13.35-26.756,33.656-26.756,56.128v52.756
			h266.667v-52.756C305.556,269.217,295.322,248.911,278.8,235.561z M172.222,11.111C215.111,11.111,250,46,250,88.889v21.956
			l4.867,0.606c19.394,2.428,34.022,18.994,34.022,38.55c0,11.744-5.239,22.739-14.372,30.172l-3.567,2.9l2.183,4.05
			c3.039,5.628,4.644,12,4.644,18.433c0,8.678-2.878,16.939-8.133,23.728c-6.05-3.5-12.656-6.222-19.767-7.894l-38.767-9.122
			v-13.783c16.789-12.117,27.778-31.8,27.778-54.039v-50h-8.972c-15.889,0-29.972-9.533-35.878-24.289l-1.394-3.489h-12.461
			l-5.411,9.022c-6.939,11.567-19.633,18.756-33.128,18.756h-36.089v50c0,6.339,0.944,12.45,2.606,18.267
			c-8.167-4.844-13.717-13.656-13.717-23.822v-28.044v-4.906V88.889h0C94.444,46,129.333,11.111,172.222,11.111z M116.667,227.606
			l27.778-6.539v-16.094c8.467,3.9,17.856,6.139,27.778,6.139s19.311-2.239,27.778-6.139v16.094l27.778,6.539v11.283
			c0,21.444-17.444,38.889-38.889,38.889h-33.333c-21.444,0-38.889-17.444-38.889-38.889v-11.283H116.667z M166.666,188.889h11.111
			c9.189,0,16.667-7.478,16.667-16.667c0-9.189-7.478-16.667-16.667-16.667h-11.111c-7.233,0-13.344,4.661-15.644,11.111h-28.8
			c-0.317,0-0.617-0.083-0.928-0.094c-2.961-6.789-4.628-14.261-4.628-22.128v-38.889h24.978c17.372,0,33.717-9.256,42.661-24.156
			l1.522-2.539c8.194,15.739,24.056,25.894,41.95,26.644v38.939c0,30.633-24.922,55.556-55.556,55.556
			c-18.122,0-34.189-8.761-44.339-22.222h23.14v0.001C153.322,184.228,159.433,188.889,166.666,188.889z M161.111,172.222
			c0-3.061,2.494-5.556,5.556-5.556h11.111c3.061,0,5.556,2.494,5.556,5.556c0,3.061-2.494,5.556-5.556,5.556h-11.111
			C163.606,177.778,161.111,175.283,161.111,172.222z M55.555,150.001c0-17.389,11.578-32.389,27.778-37.211v26.1
			c0,18.633,13.183,34.233,30.706,38.006c4.783,8.539,11.4,15.889,19.294,21.589v13.783l-38.767,9.122
			c-7.111,1.672-13.722,4.394-19.767,7.894c-5.255-6.79-8.132-15.051-8.132-23.728c0-6.433,1.606-12.806,4.644-18.433l2.183-4.05
			l-3.567-2.9C60.794,172.74,55.555,161.745,55.555,150.001z M88.889,333.334H50v-8.645c3.283,1.911,7.044,3.089,11.111,3.089
			h27.778V333.334z M244.444,311.111v22.222H100v-22.222H88.889v5.556H61.111c-6.128,0-11.111-4.983-11.111-11.111v-13.867
			c0-28.5,19.372-52.961,47.111-59.489l8.444-1.983v8.672c0,27.567,22.433,50,50,50h33.333c27.567,0,50-22.433,50-50v-8.672
			l8.444,1.989c27.739,6.528,47.111,30.989,47.111,59.483v13.867c0.001,6.127-4.982,11.111-11.11,11.111h-27.778v-5.556H244.444z
			 M294.445,333.332h-38.889v-5.555h27.778c4.067,0,7.828-1.178,11.111-3.089V333.332z"/>
	</g>
</g>
<g>
</g>
<g>
</g>
<g>
</g>
<g>
</g>
<g>
</g>
<g>
</g>
<g>
</g>
<g>
</g>
<g>
</g>
<g>
</g>
<g>
</g>
<g>
</g>
<g>
</g>
<g>
</g>
<g>
</g>
</svg>
